# xmcd
#
# Track frame offsets:
#	150
#	15721
#	39516
#	57869
#	75149
#	98595
#	118674
#	137380
#	153956
#	172649
#	194126
#	213062
#
# Disc length: 3077 seconds
#
# Revision: 0
# Processed by: cddbd v1.5.2PL0 Copyright (c) Steve Scherf et al.
# Submitted via: audiograbber 1.83.01
#
DISCID=850c030c
DTITLE=Shannon McNally - Geronimo
DYEAR=2005
DGENRE=Country
TTITLE0=The Worst Part Of A Broken Heart
TTITLE1=Miracle Mile
TTITLE2=Sweet Forgiveness
TTITLE3=Geronimo
TTITLE4=Pale Moon
TTITLE5=The Hard Way
TTITLE6=Beautiful And Strange
TTITLE7=Tennessee Blues
TTITLE8=Weathervane
TTITLE9=Leave Your Bags By The Door
TTITLE10=In The Name Of Us, Honey
TTITLE11=Lovin' In My Baby's Eyes
EXTD=
EXTT0=
EXTT1=
EXTT2=
EXTT3=
EXTT4=
EXTT5=
EXTT6=
EXTT7=
EXTT8=
EXTT9=
EXTT10=
EXTT11=
PLAYORDER=
